{
  "asset": {
    "generator": "Khronos glTF Blender I/O v3.5.30",
    "version": "2.0"
  },
  "extensionsUsed": [
    "KHR_materials_specular",
    "KHR_materials_ior"
  ],
  "scene": 0,
  "scenes": [
    {
      "name": "Scene",
      "nodes": [
        0,
        1,
        2,
        3,
        4,
        5,
        6,
        7,
        8,
        9
      ]
    }
  ],
  "nodes": [
    {
      "mesh": 0,
      "name": "moss_strand_c_LOD0",
      "translation": [
        0.03999999910593033,
        0,
        0
      ]
    },
    {
      "mesh": 1,
      "name": "moss_strand_d_LOD0",
      "translation": [
        0.0636892095208168,
        0,
        0
      ]
    },
    {
      "mesh": 2,
      "name": "moss_strand_e_LOD0",
      "translation": [
        0.0936892032623291,
        0,
        0
      ]
    },
    {
      "mesh": 3,
      "name": "moss_strand_f_LOD0",
      "translation": [
        0,
        0,
        -0.029999999329447746
      ]
    },
    {
      "mesh": 4,
      "name": "moss_strand_b_LOD0",
      "translation": [
        0.019999999552965164,
        0,
        0
      ]
    },
    {
      "mesh": 5,
      "name": "moss_strand_g_LOD0",
      "translation": [
        0.019999995827674866,
        0,
        -0.029999999329447746
      ]
    },
    {
      "mesh": 6,
      "name": "moss_strand_a_LOD0"
    },
    {
      "mesh": 7,
      "name": "moss_strand_h_LOD0",
      "translation": [
        0.03999999165534973,
        0,
        -0.029999999329447746
      ]
    },
    {
      "mesh": 8,
      "name": "moss_strand_i_LOD0",
      "translation": [
        0.05983259528875351,
        0,
        -0.029999999329447746
      ]
    },
    {
      "mesh": 9,
      "name": "moss_strand_j_LOD0",
      "rotation": [
        -0.18828850984573364,
        0.21597281098365784,
        -0.06800941377878189,
        0.9556557536125183
      ],
      "translation": [
        0.09368918836116791,
        0,
        -0.029999999329447746
      ]
    }
  ],
  "materials": [
    {
      "alphaCutoff": 0.5,
      "alphaMode": "MASK",
      "doubleSided": true,
      "extensions": {
        "KHR_materials_specular": {
          "specularColorFactor": [
            0.12795095499538245,
            0.12795095499538245,
            0.12795095499538245
          ]
        },
        "KHR_materials_ior": {
          "ior": 1.4500000476837158
        }
      },
      "name": "moss_01",
      "normalTexture": {
        "index": 0
      },
      "pbrMetallicRoughness": {
        "baseColorTexture": {
          "index": 1
        },
        "metallicFactor": 0,
        "metallicRoughnessTexture": {
          "index": 2
        }
      }
    }
  ],
  "meshes": [
    {
      "name": "Plane.012",
      "primitives": [
        {
          "attributes": {
            "POSITION": 0,
            "TEXCOORD_0": 1,
            "NORMAL": 2
          },
          "indices": 3,
          "material": 0
        }
      ]
    },
    {
      "name": "Plane.015",
      "primitives": [
        {
          "attributes": {
            "POSITION": 4,
            "TEXCOORD_0": 5,
            "NORMAL": 6
          },
          "indices": 7,
          "material": 0
        }
      ]
    },
    {
      "name": "Plane.017",
      "primitives": [
        {
          "attributes": {
            "POSITION": 8,
            "TEXCOORD_0": 9,
            "NORMAL": 10
          },
          "indices": 11,
          "material": 0
        }
      ]
    },
    {
      "name": "Plane.020",
      "primitives": [
        {
          "attributes": {
            "POSITION": 12,
            "TEXCOORD_0": 13,
            "NORMAL": 14
          },
          "indices": 11,
          "material": 0
        }
      ]
    },
    {
      "name": "Plane.021",
      "primitives": [
        {
          "attributes": {
            "POSITION": 15,
            "TEXCOORD_0": 16,
            "NORMAL": 17
          },
          "indices": 7,
          "material": 0
        }
      ]
    },
    {
      "name": "Plane.024",
      "primitives": [
        {
          "attributes": {
            "POSITION": 18,
            "TEXCOORD_0": 19,
            "NORMAL": 20
          },
          "indices": 7,
          "material": 0
        }
      ]
    },
    {
      "name": "Plane.029",
      "primitives": [
        {
          "attributes": {
            "POSITION": 21,
            "TEXCOORD_0": 22,
            "NORMAL": 23
          },
          "indices": 24,
          "material": 0
        }
      ]
    },
    {
      "name": "Plane.039",
      "primitives": [
        {
          "attributes": {
            "POSITION": 25,
            "TEXCOORD_0": 26,
            "NORMAL": 27
          },
          "indices": 28,
          "material": 0
        }
      ]
    },
    {
      "name": "Plane.014",
      "primitives": [
        {
          "attributes": {
            "POSITION": 29,
            "TEXCOORD_0": 30,
            "NORMAL": 31
          },
          "indices": 28,
          "material": 0
        }
      ]
    },
    {
      "name": "Plane.001",
      "primitives": [
        {
          "attributes": {
            "POSITION": 32,
            "TEXCOORD_0": 33,
            "NORMAL": 34
          },
          "indices": 35,
          "material": 0
        }
      ]
    }
  ],
  "textures": [
    {
      "sampler": 0,
      "source": 0
    },
    {
      "sampler": 0,
      "source": 1
    },
    {
      "sampler": 0,
      "source": 2
    }
  ],
  "images": [
    {
      "mimeType": "image/jpeg",
      "name": "moss_01_nor_gl",
      "uri": "textures/moss_01_nor_gl_1k.jpg"
    },
    {
      "mimeType": "image/jpeg",
      "name": "moss_01_diff-moss_01_alpha",
      "uri": "textures/moss_01_diff_1k.jpg"
    },
    {
      "mimeType": "image/jpeg",
      "name": "moss_01_rough",
      "uri": "textures/moss_01_arm_1k.jpg"
    }
  ],
  "accessors": [
    {
      "bufferView": 0,
      "componentType": 5126,
      "count": 24,
      "max": [
        0.00439482694491744,
        0.027747370302677155,
        0.0048323022201657295
      ],
      "min": [
        -0.013785145245492458,
        8.761583103478188e-8,
        -0.009170814417302608
      ],
      "type": "VEC3"
    },
    {
      "bufferView": 1,
      "componentType": 5126,
      "count": 24,
      "type": "VEC2"
    },
    {
      "bufferView": 2,
      "componentType": 5126,
      "count": 24,
      "type": "VEC3"
    },
    {
      "bufferView": 3,
      "componentType": 5123,
      "count": 72,
      "type": "SCALAR"
    },
    {
      "bufferView": 4,
      "componentType": 5126,
      "count": 16,
      "max": [
        0.0066835153847932816,
        0.02325499802827835,
        0.008718956261873245
      ],
      "min": [
        -0.0068742805160582066,
        -0.003464906709268689,
        -0.006917863618582487
      ],
      "type": "VEC3"
    },
    {
      "bufferView": 5,
      "componentType": 5126,
      "count": 16,
      "type": "VEC2"
    },
    {
      "bufferView": 6,
      "componentType": 5126,
      "count": 16,
      "type": "VEC3"
    },
    {
      "bufferView": 7,
      "componentType": 5123,
      "count": 48,
      "type": "SCALAR"
    },
    {
      "bufferView": 8,
      "componentType": 5126,
      "count": 19,
      "max": [
        0.004220020025968552,
        0.02159985899925232,
        0.0080511923879385
      ],
      "min": [
        -0.006936457473784685,
        0,
        -0.004655787721276283
      ],
      "type": "VEC3"
    },
    {
      "bufferView": 9,
      "componentType": 5126,
      "count": 19,
      "type": "VEC2"
    },
    {
      "bufferView": 10,
      "componentType": 5126,
      "count": 19,
      "type": "VEC3"
    },
    {
      "bufferView": 11,
      "componentType": 5123,
      "count": 60,
      "type": "SCALAR"
    },
    {
      "bufferView": 12,
      "componentType": 5126,
      "count": 19,
      "max": [
        0.005992166232317686,
        0.03005094639956951,
        0.006334646139293909
      ],
      "min": [
        -0.006777194328606129,
        0,
        -0.006678146775811911
      ],
      "type": "VEC3"
    },
    {
      "bufferView": 13,
      "componentType": 5126,
      "count": 19,
      "type": "VEC2"
    },
    {
      "bufferView": 14,
      "componentType": 5126,
      "count": 19,
      "type": "VEC3"
    },
    {
      "bufferView": 15,
      "componentType": 5126,
      "count": 16,
      "max": [
        0.005255779717117548,
        0.014765322208404541,
        0.004435925744473934
      ],
      "min": [
        -0.00424335477873683,
        0,
        -0.005079510621726513
      ],
      "type": "VEC3"
    },
    {
      "bufferView": 16,
      "componentType": 5126,
      "count": 16,
      "type": "VEC2"
    },
    {
      "bufferView": 17,
      "componentType": 5126,
      "count": 16,
      "type": "VEC3"
    },
    {
      "bufferView": 18,
      "componentType": 5126,
      "count": 16,
      "max": [
        0.006538619752973318,
        0.021551793441176414,
        0.005561012774705887
      ],
      "min": [
        -0.006349573843181133,
        -4.737362147011481e-8,
        -0.003914110362529755
      ],
      "type": "VEC3"
    },
    {
      "bufferView": 19,
      "componentType": 5126,
      "count": 16,
      "type": "VEC2"
    },
    {
      "bufferView": 20,
      "componentType": 5126,
      "count": 16,
      "type": "VEC3"
    },
    {
      "bufferView": 21,
      "componentType": 5126,
      "count": 24,
      "max": [
        0.005321514327079058,
        0.025953780859708786,
        0.005851235240697861
      ],
      "min": [
        -0.00888559315353632,
        0,
        -0.010091456584632397
      ],
      "type": "VEC3"
    },
    {
      "bufferView": 22,
      "componentType": 5126,
      "count": 24,
      "type": "VEC2"
    },
    {
      "bufferView": 23,
      "componentType": 5126,
      "count": 24,
      "type": "VEC3"
    },
    {
      "bufferView": 24,
      "componentType": 5123,
      "count": 72,
      "type": "SCALAR"
    },
    {
      "bufferView": 25,
      "componentType": 5126,
      "count": 7,
      "max": [
        0.004918911028653383,
        0.017582479864358902,
        -1.9397636275009233e-10
      ],
      "min": [
        -0.005758685525506735,
        3.8795272550018467e-10,
        -0.005749505944550037
      ],
      "type": "VEC3"
    },
    {
      "bufferView": 26,
      "componentType": 5126,
      "count": 7,
      "type": "VEC2"
    },
    {
      "bufferView": 27,
      "componentType": 5126,
      "count": 7,
      "type": "VEC3"
    },
    {
      "bufferView": 28,
      "componentType": 5123,
      "count": 18,
      "type": "SCALAR"
    },
    {
      "bufferView": 29,
      "componentType": 5126,
      "count": 7,
      "max": [
        0.01592414826154709,
        0.014728115871548653,
        0.006876013241708279
      ],
      "min": [
        -0.0005590105429291725,
        4.2302639169378153e-10,
        -0.005873300600796938
      ],
      "type": "VEC3"
    },
    {
      "bufferView": 30,
      "componentType": 5126,
      "count": 7,
      "type": "VEC2"
    },
    {
      "bufferView": 31,
      "componentType": 5126,
      "count": 7,
      "type": "VEC3"
    },
    {
      "bufferView": 32,
      "componentType": 5126,
      "count": 8,
      "max": [
        0.004133597016334534,
        0.006863008253276348,
        0.019197257235646248
      ],
      "min": [
        -0.01247353944927454,
        -0.002142798388376832,
        0.00040520812035538256
      ],
      "type": "VEC3"
    },
    {
      "bufferView": 33,
      "componentType": 5126,
      "count": 8,
      "type": "VEC2"
    },
    {
      "bufferView": 34,
      "componentType": 5126,
      "count": 8,
      "type": "VEC3"
    },
    {
      "bufferView": 35,
      "componentType": 5123,
      "count": 24,
      "type": "SCALAR"
    }
  ],
  "bufferViews": [
    {
      "buffer": 0,
      "byteLength": 288,
      "byteOffset": 0,
      "target": 34962
    },
    {
      "buffer": 0,
      "byteLength": 192,
      "byteOffset": 288,
      "target": 34962
    },
    {
      "buffer": 0,
      "byteLength": 288,
      "byteOffset": 480,
      "target": 34962
    },
    {
      "buffer": 0,
      "byteLength": 144,
      "byteOffset": 768,
      "target": 34963
    },
    {
      "buffer": 0,
      "byteLength": 192,
      "byteOffset": 912,
      "target": 34962
    },
    {
      "buffer": 0,
      "byteLength": 128,
      "byteOffset": 1104,
      "target": 34962
    },
    {
      "buffer": 0,
      "byteLength": 192,
      "byteOffset": 1232,
      "target": 34962
    },
    {
      "buffer": 0,
      "byteLength": 96,
      "byteOffset": 1424,
      "target": 34963
    },
    {
      "buffer": 0,
      "byteLength": 228,
      "byteOffset": 1520,
      "target": 34962
    },
    {
      "buffer": 0,
      "byteLength": 152,
      "byteOffset": 1748,
      "target": 34962
    },
    {
      "buffer": 0,
      "byteLength": 228,
      "byteOffset": 1900,
      "target": 34962
    },
    {
      "buffer": 0,
      "byteLength": 120,
      "byteOffset": 2128,
      "target": 34963
    },
    {
      "buffer": 0,
      "byteLength": 228,
      "byteOffset": 2248,
      "target": 34962
    },
    {
      "buffer": 0,
      "byteLength": 152,
      "byteOffset": 2476,
      "target": 34962
    },
    {
      "buffer": 0,
      "byteLength": 228,
      "byteOffset": 2628,
      "target": 34962
    },
    {
      "buffer": 0,
      "byteLength": 192,
      "byteOffset": 2856,
      "target": 34962
    },
    {
      "buffer": 0,
      "byteLength": 128,
      "byteOffset": 3048,
      "target": 34962
    },
    {
      "buffer": 0,
      "byteLength": 192,
      "byteOffset": 3176,
      "target": 34962
    },
    {
      "buffer": 0,
      "byteLength": 192,
      "byteOffset": 3368,
      "target": 34962
    },
    {
      "buffer": 0,
      "byteLength": 128,
      "byteOffset": 3560,
      "target": 34962
    },
    {
      "buffer": 0,
      "byteLength": 192,
      "byteOffset": 3688,
      "target": 34962
    },
    {
      "buffer": 0,
      "byteLength": 288,
      "byteOffset": 3880,
      "target": 34962
    },
    {
      "buffer": 0,
      "byteLength": 192,
      "byteOffset": 4168,
      "target": 34962
    },
    {
      "buffer": 0,
      "byteLength": 288,
      "byteOffset": 4360,
      "target": 34962
    },
    {
      "buffer": 0,
      "byteLength": 144,
      "byteOffset": 4648,
      "target": 34963
    },
    {
      "buffer": 0,
      "byteLength": 84,
      "byteOffset": 4792,
      "target": 34962
    },
    {
      "buffer": 0,
      "byteLength": 56,
      "byteOffset": 4876,
      "target": 34962
    },
    {
      "buffer": 0,
      "byteLength": 84,
      "byteOffset": 4932,
      "target": 34962
    },
    {
      "buffer": 0,
      "byteLength": 36,
      "byteOffset": 5016,
      "target": 34963
    },
    {
      "buffer": 0,
      "byteLength": 84,
      "byteOffset": 5052,
      "target": 34962
    },
    {
      "buffer": 0,
      "byteLength": 56,
      "byteOffset": 5136,
      "target": 34962
    },
    {
      "buffer": 0,
      "byteLength": 84,
      "byteOffset": 5192,
      "target": 34962
    },
    {
      "buffer": 0,
      "byteLength": 96,
      "byteOffset": 5276,
      "target": 34962
    },
    {
      "buffer": 0,
      "byteLength": 64,
      "byteOffset": 5372,
      "target": 34962
    },
    {
      "buffer": 0,
      "byteLength": 96,
      "byteOffset": 5436,
      "target": 34962
    },
    {
      "buffer": 0,
      "byteLength": 48,
      "byteOffset": 5532,
      "target": 34963
    }
  ],
  "samplers": [
    {
      "magFilter": 9729,
      "minFilter": 9987
    }
  ],
  "buffers": [
    {
      "byteLength": 5580,
      "uri": "moss_01.bin"
    }
  ]
}