{
	"asset":{
		"generator":"Khronos glTF Blender I/O v4.2.70",
		"version":"2.0"
	},
	"extensionsUsed":[
		"KHR_materials_specular"
	],
	"scene":0,
	"scenes":[
		{
			"name":"Scene",
			"nodes":[
				6
			]
		}
	],
	"nodes":[
		{
			"name":"jnt_flag_3",
			"rotation":[
				6.682951781586909e-16,
				-0.08036016672849655,
				-1.7821204750898424e-15,
				0.9967658519744873
			],
			"scale":[
				1.0000001192092896,
				1,
				1.0000001192092896
			],
			"translation":[
				89.99822235107422,
				-0.5682828426361084,
				0.0497010312974453
			]
		},
		{
			"children":[
				0
			],
			"name":"jnt_flag_2",
			"rotation":[
				2.22489350161899e-16,
				0.06319428980350494,
				-3.559829602590384e-15,
				0.998001217842102
			],
			"scale":[
				0.9999999403953552,
				0.9999998807907104,
				0.9999999403953552
			],
			"translation":[
				119.99998474121094,
				-0.0001131070384872146,
				1.8960068928208784e-06
			]
		},
		{
			"children":[
				1
			],
			"name":"jnt_flag_1",
			"rotation":[
				0,
				0.7568187713623047,
				-2.9339204295683314e-16,
				0.6536247730255127
			],
			"translation":[
				0,
				0.00018310546875,
				-4.023313522338867e-07
			]
		},
		{
			"children":[
				2
			],
			"name":"center",
			"translation":[
				0,
				689.9999389648438,
				0
			]
		},
		{
			"children":[
				3
			],
			"name":"root",
			"rotation":[
				-0.7071067690849304,
				0,
				0,
				0.7071067690849304
			]
		},
		{
			"mesh":0,
			"name":"m0",
			"skin":0
		},
		{
			"children":[
				5,
				4
			],
			"name":"Armature",
			"rotation":[
				0.7071068286895752,
				0,
				0,
				0.7071068286895752
			],
			"scale":[
				0.009999999776482582,
				0.009999999776482582,
				0.009999999776482582
			]
		}
	],
	"materials":[
		{
			"doubleSided":true,
			"extensions":{
				"KHR_materials_specular":{
					"specularFactor":0
				}
			},
			"name":"_mat5",
			"pbrMetallicRoughness":{
				"baseColorTexture":{
					"index":0
				},
				"metallicFactor":0,
				"roughnessFactor":0.5
			}
		}
	],
	"meshes":[
		{
			"name":"mesh0",
			"primitives":[
				{
					"attributes":{
						"POSITION":0,
						"NORMAL":1,
						"TEXCOORD_0":2,
						"JOINTS_0":3,
						"WEIGHTS_0":4
					},
					"indices":5,
					"material":0
				}
			]
		}
	],
	"textures":[
		{
			"sampler":0,
			"source":0
		}
	],
	"images":[
		{
			"mimeType":"image/png",
			"name":"H_monteflag_16rgb",
			"uri":"H_monteflag_16rgb.png"
		}
	],
	"skins":[
		{
			"inverseBindMatrices":6,
			"joints":[
				4,
				3,
				2,
				1,
				0
			],
			"name":"Armature"
		}
	],
	"accessors":[
		{
			"bufferView":0,
			"componentType":5126,
			"count":41,
			"max":[
				0.3103124797344208,
				9.310312271118164,
				0.2681243121623993
			],
			"min":[
				-0.5809375047683716,
				-8.493513448115664e-09,
				-3.411832809448242
			],
			"type":"VEC3"
		},
		{
			"bufferView":1,
			"componentType":5126,
			"count":41,
			"type":"VEC3"
		},
		{
			"bufferView":2,
			"componentType":5126,
			"count":41,
			"type":"VEC2"
		},
		{
			"bufferView":3,
			"componentType":5121,
			"count":41,
			"type":"VEC4"
		},
		{
			"bufferView":4,
			"componentType":5126,
			"count":41,
			"type":"VEC4"
		},
		{
			"bufferView":5,
			"componentType":5123,
			"count":153,
			"type":"SCALAR"
		},
		{
			"bufferView":6,
			"componentType":5126,
			"count":5,
			"type":"MAT4"
		}
	],
	"bufferViews":[
		{
			"buffer":0,
			"byteLength":492,
			"byteOffset":0,
			"target":34962
		},
		{
			"buffer":0,
			"byteLength":492,
			"byteOffset":492,
			"target":34962
		},
		{
			"buffer":0,
			"byteLength":328,
			"byteOffset":984,
			"target":34962
		},
		{
			"buffer":0,
			"byteLength":164,
			"byteOffset":1312,
			"target":34962
		},
		{
			"buffer":0,
			"byteLength":656,
			"byteOffset":1476,
			"target":34962
		},
		{
			"buffer":0,
			"byteLength":306,
			"byteOffset":2132,
			"target":34963
		},
		{
			"buffer":0,
			"byteLength":320,
			"byteOffset":2440
		}
	],
	"samplers":[
		{
			"magFilter":9729,
			"minFilter":9987
		}
	],
	"buffers":[
		{
			"byteLength":2760,
			"uri":"flagconvert.bin"
		}
	]
}
