{
	"asset":{
		"generator":"Khronos glTF Blender I/O v4.2.70",
		"version":"2.0"
	},
	"extensionsUsed":[
		"KHR_materials_specular"
	],
	"scene":0,
	"scenes":[
		{
			"name":"Scene",
			"nodes":[
				2
			]
		}
	],
	"nodes":[
		{
			"name":"sb_jump01",
			"rotation":[
				-0.7071067690849304,
				0,
				0,
				0.7071067690849304
			]
		},
		{
			"mesh":0,
			"name":"sb_jump1",
			"skin":0
		},
		{
			"children":[
				1,
				0
			],
			"name":"Armature",
			"rotation":[
				0.7071068286895752,
				0,
				0,
				0.7071068286895752
			]
		}
	],
	"materials":[
		{
			"doubleSided":true,
			"extensions":{
				"KHR_materials_specular":{
					"specularFactor":0
				}
			},
			"name":"Material44",
			"pbrMetallicRoughness":{
				"baseColorTexture":{
					"index":0
				},
				"metallicFactor":0,
				"roughnessFactor":0.5
			}
		},
		{
			"doubleSided":true,
			"extensions":{
				"KHR_materials_specular":{
					"specularFactor":0
				}
			},
			"name":"Material45",
			"pbrMetallicRoughness":{
				"baseColorTexture":{
					"index":1
				},
				"metallicFactor":0,
				"roughnessFactor":0.5
			}
		},
		{
			"doubleSided":true,
			"extensions":{
				"KHR_materials_specular":{
					"specularFactor":0
				}
			},
			"name":"Material46",
			"pbrMetallicRoughness":{
				"baseColorTexture":{
					"index":2
				},
				"metallicFactor":0,
				"roughnessFactor":0.5
			}
		}
	],
	"meshes":[
		{
			"name":"sb_jump1",
			"primitives":[
				{
					"attributes":{
						"POSITION":0,
						"NORMAL":1,
						"TEXCOORD_0":2,
						"JOINTS_0":3,
						"WEIGHTS_0":4
					},
					"indices":5,
					"material":0
				},
				{
					"attributes":{
						"POSITION":6,
						"NORMAL":7,
						"TEXCOORD_0":8,
						"JOINTS_0":9,
						"WEIGHTS_0":10
					},
					"indices":11,
					"material":1
				},
				{
					"attributes":{
						"POSITION":12,
						"NORMAL":13,
						"TEXCOORD_0":14,
						"JOINTS_0":15,
						"WEIGHTS_0":16
					},
					"indices":17,
					"material":2
				}
			]
		}
	],
	"textures":[
		{
			"sampler":0,
			"source":0
		},
		{
			"sampler":0,
			"source":1
		},
		{
			"sampler":0,
			"source":2
		}
	],
	"images":[
		{
			"mimeType":"image/png",
			"name":"j_base00_00",
			"uri":"j_base00_00.png"
		},
		{
			"mimeType":"image/png",
			"name":"j_base01_00",
			"uri":"j_base01_00.png"
		},
		{
			"mimeType":"image/png",
			"name":"j_base02_00",
			"uri":"j_base02_00.png"
		}
	],
	"skins":[
		{
			"inverseBindMatrices":18,
			"joints":[
				0
			],
			"name":"Armature"
		}
	],
	"accessors":[
		{
			"bufferView":0,
			"componentType":5126,
			"count":20,
			"max":[
				9.7421875,
				17.663087844848633,
				21.875
			],
			"min":[
				-9.7421875,
				-9.909100526783732e-07,
				-13.125000953674316
			],
			"type":"VEC3"
		},
		{
			"bufferView":1,
			"componentType":5126,
			"count":20,
			"type":"VEC3"
		},
		{
			"bufferView":2,
			"componentType":5126,
			"count":20,
			"type":"VEC2"
		},
		{
			"bufferView":3,
			"componentType":5121,
			"count":20,
			"type":"VEC4"
		},
		{
			"bufferView":4,
			"componentType":5126,
			"count":20,
			"type":"VEC4"
		},
		{
			"bufferView":5,
			"componentType":5123,
			"count":30,
			"type":"SCALAR"
		},
		{
			"bufferView":6,
			"componentType":5126,
			"count":40,
			"max":[
				11.541015625,
				17.663087844848633,
				21.875
			],
			"min":[
				-11.541015625,
				-9.909100526783732e-07,
				-13.125000953674316
			],
			"type":"VEC3"
		},
		{
			"bufferView":7,
			"componentType":5126,
			"count":40,
			"type":"VEC3"
		},
		{
			"bufferView":8,
			"componentType":5126,
			"count":40,
			"type":"VEC2"
		},
		{
			"bufferView":9,
			"componentType":5121,
			"count":40,
			"type":"VEC4"
		},
		{
			"bufferView":10,
			"componentType":5126,
			"count":40,
			"type":"VEC4"
		},
		{
			"bufferView":11,
			"componentType":5123,
			"count":60,
			"type":"SCALAR"
		},
		{
			"bufferView":12,
			"componentType":5126,
			"count":38,
			"max":[
				9.7421875,
				17.663087844848633,
				21.875001907348633
			],
			"min":[
				-9.7421875,
				-9.909100526783732e-07,
				-13.125000953674316
			],
			"type":"VEC3"
		},
		{
			"bufferView":13,
			"componentType":5126,
			"count":38,
			"type":"VEC3"
		},
		{
			"bufferView":14,
			"componentType":5126,
			"count":38,
			"type":"VEC2"
		},
		{
			"bufferView":15,
			"componentType":5121,
			"count":38,
			"type":"VEC4"
		},
		{
			"bufferView":16,
			"componentType":5126,
			"count":38,
			"type":"VEC4"
		},
		{
			"bufferView":17,
			"componentType":5123,
			"count":54,
			"type":"SCALAR"
		},
		{
			"bufferView":18,
			"componentType":5126,
			"count":1,
			"type":"MAT4"
		}
	],
	"bufferViews":[
		{
			"buffer":0,
			"byteLength":240,
			"byteOffset":0,
			"target":34962
		},
		{
			"buffer":0,
			"byteLength":240,
			"byteOffset":240,
			"target":34962
		},
		{
			"buffer":0,
			"byteLength":160,
			"byteOffset":480,
			"target":34962
		},
		{
			"buffer":0,
			"byteLength":80,
			"byteOffset":640,
			"target":34962
		},
		{
			"buffer":0,
			"byteLength":320,
			"byteOffset":720,
			"target":34962
		},
		{
			"buffer":0,
			"byteLength":60,
			"byteOffset":1040,
			"target":34963
		},
		{
			"buffer":0,
			"byteLength":480,
			"byteOffset":1100,
			"target":34962
		},
		{
			"buffer":0,
			"byteLength":480,
			"byteOffset":1580,
			"target":34962
		},
		{
			"buffer":0,
			"byteLength":320,
			"byteOffset":2060,
			"target":34962
		},
		{
			"buffer":0,
			"byteLength":160,
			"byteOffset":2380,
			"target":34962
		},
		{
			"buffer":0,
			"byteLength":640,
			"byteOffset":2540,
			"target":34962
		},
		{
			"buffer":0,
			"byteLength":120,
			"byteOffset":3180,
			"target":34963
		},
		{
			"buffer":0,
			"byteLength":456,
			"byteOffset":3300,
			"target":34962
		},
		{
			"buffer":0,
			"byteLength":456,
			"byteOffset":3756,
			"target":34962
		},
		{
			"buffer":0,
			"byteLength":304,
			"byteOffset":4212,
			"target":34962
		},
		{
			"buffer":0,
			"byteLength":152,
			"byteOffset":4516,
			"target":34962
		},
		{
			"buffer":0,
			"byteLength":608,
			"byteOffset":4668,
			"target":34962
		},
		{
			"buffer":0,
			"byteLength":108,
			"byteOffset":5276,
			"target":34963
		},
		{
			"buffer":0,
			"byteLength":64,
			"byteOffset":5384
		}
	],
	"samplers":[
		{
			"magFilter":9729,
			"minFilter":9987
		}
	],
	"buffers":[
		{
			"byteLength":5448,
			"uri":"rampconvert.bin"
		}
	]
}
