{
	"asset":{
		"generator":"Khronos glTF Blender I/O v4.2.70",
		"version":"2.0"
	},
	"extensionsUsed":[
		"KHR_materials_specular"
	],
	"scene":0,
	"scenes":[
		{
			"name":"Scene",
			"nodes":[
				9
			]
		}
	],
	"nodes":[
		{
			"name":"body",
			"translation":[
				0,
				-7.152557373046875e-07,
				0
			]
		},
		{
			"name":"null",
			"translation":[
				0,
				1.327941419049239e-07,
				-1.7589099407196045
			]
		},
		{
			"children":[
				1
			],
			"name":"eff_loc",
			"translation":[
				0,
				23.72369956970215,
				0
			]
		},
		{
			"children":[
				0,
				2
			],
			"name":"position",
			"translation":[
				0,
				-23.700000762939453,
				0
			]
		},
		{
			"children":[
				3
			],
			"name":"balloon",
			"translation":[
				0,
				23.700000762939453,
				0
			]
		},
		{
			"children":[
				4
			],
			"name":"S",
			"rotation":[
				-0.7071067690849304,
				0,
				0,
				0.7071067690849304
			]
		},
		{
			"mesh":0,
			"name":"_0_0_node",
			"skin":0
		},
		{
			"mesh":1,
			"name":"_1_0_node",
			"skin":0
		},
		{
			"mesh":2,
			"name":"_2_0_node",
			"skin":0
		},
		{
			"children":[
				6,
				7,
				8,
				5
			],
			"name":"Armature",
			"rotation":[
				0.7071068286895752,
				0,
				0,
				0.7071068286895752
			]
		}
	],
	"materials":[
		{
			"doubleSided":true,
			"extensions":{
				"KHR_materials_specular":{
					"specularFactor":0
				}
			},
			"name":"mBalloon_mat",
			"pbrMetallicRoughness":{
				"baseColorTexture":{
					"index":0
				},
				"metallicFactor":0,
				"roughnessFactor":0.5
			}
		},
		{
			"doubleSided":true,
			"extensions":{
				"KHR_materials_specular":{
					"specularFactor":0
				}
			},
			"name":"mBalloon_knot_mat",
			"pbrMetallicRoughness":{
				"baseColorTexture":{
					"index":1
				},
				"metallicFactor":0,
				"roughnessFactor":0.5
			}
		}
	],
	"meshes":[
		{
			"name":"_0_0",
			"primitives":[
				{
					"attributes":{
						"POSITION":0,
						"NORMAL":1,
						"TEXCOORD_0":2,
						"JOINTS_0":3,
						"WEIGHTS_0":4
					},
					"indices":5,
					"material":0
				}
			]
		},
		{
			"name":"_1_0",
			"primitives":[
				{
					"attributes":{
						"POSITION":7,
						"NORMAL":8,
						"TEXCOORD_0":9,
						"JOINTS_0":10,
						"WEIGHTS_0":11
					},
					"indices":12,
					"material":1
				}
			]
		},
		{
			"name":"_2_0",
			"primitives":[
				{
					"attributes":{
						"POSITION":13,
						"NORMAL":14,
						"TEXCOORD_0":15,
						"JOINTS_0":16,
						"WEIGHTS_0":17
					},
					"indices":18,
					"material":0
				}
			]
		}
	],
	"textures":[
		{
			"sampler":0,
			"source":0
		},
		{
			"sampler":0,
			"source":0
		}
	],
	"images":[
		{
			"mimeType":"image/png",
			"name":"sBalloon",
			"uri":"sBalloon.png"
		}
	],
	"skins":[
		{
			"inverseBindMatrices":6,
			"joints":[
				5,
				4,
				3,
				0,
				2,
				1
			],
			"name":"Armature"
		}
	],
	"accessors":[
		{
			"bufferView":0,
			"componentType":5126,
			"count":377,
			"max":[
				16.62150001525879,
				45.00689697265625,
				16.621498107910156
			],
			"min":[
				-16.62150001525879,
				3.6875298023223877,
				-16.621501922607422
			],
			"type":"VEC3"
		},
		{
			"bufferView":1,
			"componentType":5126,
			"count":377,
			"type":"VEC3"
		},
		{
			"bufferView":2,
			"componentType":5126,
			"count":377,
			"type":"VEC2"
		},
		{
			"bufferView":3,
			"componentType":5121,
			"count":377,
			"type":"VEC4"
		},
		{
			"bufferView":4,
			"componentType":5126,
			"count":377,
			"type":"VEC4"
		},
		{
			"bufferView":5,
			"componentType":5123,
			"count":2052,
			"type":"SCALAR"
		},
		{
			"bufferView":6,
			"componentType":5126,
			"count":6,
			"type":"MAT4"
		},
		{
			"bufferView":7,
			"componentType":5126,
			"count":94,
			"max":[
				0.8472650051116943,
				3.6875298023223877,
				1.1954100131988525
			],
			"min":[
				-2.634320020675659,
				-2.4307077239882346e-08,
				-1.8393199443817139
			],
			"type":"VEC3"
		},
		{
			"bufferView":8,
			"componentType":5126,
			"count":94,
			"type":"VEC3"
		},
		{
			"bufferView":9,
			"componentType":5126,
			"count":94,
			"type":"VEC2"
		},
		{
			"bufferView":10,
			"componentType":5121,
			"count":94,
			"type":"VEC4"
		},
		{
			"bufferView":11,
			"componentType":5126,
			"count":94,
			"type":"VEC4"
		},
		{
			"bufferView":12,
			"componentType":5123,
			"count":312,
			"type":"SCALAR"
		},
		{
			"bufferView":13,
			"componentType":5126,
			"count":24,
			"max":[
				2.16117000579834,
				25.884868621826172,
				0.4022584557533264
			],
			"min":[
				-2.16117000579834,
				21.562528610229492,
				-3.920081853866577
			],
			"type":"VEC3"
		},
		{
			"bufferView":14,
			"componentType":5126,
			"count":24,
			"type":"VEC3"
		},
		{
			"bufferView":15,
			"componentType":5126,
			"count":24,
			"type":"VEC2"
		},
		{
			"bufferView":16,
			"componentType":5121,
			"count":24,
			"type":"VEC4"
		},
		{
			"bufferView":17,
			"componentType":5126,
			"count":24,
			"type":"VEC4"
		},
		{
			"bufferView":18,
			"componentType":5123,
			"count":36,
			"type":"SCALAR"
		}
	],
	"bufferViews":[
		{
			"buffer":0,
			"byteLength":4524,
			"byteOffset":0,
			"target":34962
		},
		{
			"buffer":0,
			"byteLength":4524,
			"byteOffset":4524,
			"target":34962
		},
		{
			"buffer":0,
			"byteLength":3016,
			"byteOffset":9048,
			"target":34962
		},
		{
			"buffer":0,
			"byteLength":1508,
			"byteOffset":12064,
			"target":34962
		},
		{
			"buffer":0,
			"byteLength":6032,
			"byteOffset":13572,
			"target":34962
		},
		{
			"buffer":0,
			"byteLength":4104,
			"byteOffset":19604,
			"target":34963
		},
		{
			"buffer":0,
			"byteLength":384,
			"byteOffset":23708
		},
		{
			"buffer":0,
			"byteLength":1128,
			"byteOffset":24092,
			"target":34962
		},
		{
			"buffer":0,
			"byteLength":1128,
			"byteOffset":25220,
			"target":34962
		},
		{
			"buffer":0,
			"byteLength":752,
			"byteOffset":26348,
			"target":34962
		},
		{
			"buffer":0,
			"byteLength":376,
			"byteOffset":27100,
			"target":34962
		},
		{
			"buffer":0,
			"byteLength":1504,
			"byteOffset":27476,
			"target":34962
		},
		{
			"buffer":0,
			"byteLength":624,
			"byteOffset":28980,
			"target":34963
		},
		{
			"buffer":0,
			"byteLength":288,
			"byteOffset":29604,
			"target":34962
		},
		{
			"buffer":0,
			"byteLength":288,
			"byteOffset":29892,
			"target":34962
		},
		{
			"buffer":0,
			"byteLength":192,
			"byteOffset":30180,
			"target":34962
		},
		{
			"buffer":0,
			"byteLength":96,
			"byteOffset":30372,
			"target":34962
		},
		{
			"buffer":0,
			"byteLength":384,
			"byteOffset":30468,
			"target":34962
		},
		{
			"buffer":0,
			"byteLength":72,
			"byteOffset":30852,
			"target":34963
		}
	],
	"samplers":[
		{
			"magFilter":9729,
			"minFilter":9987
		}
	],
	"buffers":[
		{
			"byteLength":30924,
			"uri":"balloon.bin"
		}
	]
}
