{
	"asset":{
		"generator":"Khronos glTF Blender I/O v4.2.70",
		"version":"2.0"
	},
	"extensionsUsed":[
		"KHR_materials_specular"
	],
	"scene":0,
	"scenes":[
		{
			"name":"Scene",
			"nodes":[
				0
			]
		}
	],
	"nodes":[
		{
			"mesh":0,
			"name":"m0",
			"rotation":[
				0.7071068286895752,
				0,
				0,
				0.7071068286895752
			],
			"scale":[
				0.009999999776482582,
				0.009999999776482582,
				0.009999999776482582
			]
		}
	],
	"materials":[
		{
			"doubleSided":true,
			"extensions":{
				"KHR_materials_specular":{
					"specularFactor":0
				}
			},
			"name":"_mat2",
			"pbrMetallicRoughness":{
				"baseColorTexture":{
					"index":0
				},
				"metallicFactor":0,
				"roughnessFactor":0.5
			}
		}
	],
	"meshes":[
		{
			"name":"mesh0",
			"primitives":[
				{
					"attributes":{
						"POSITION":0,
						"NORMAL":1,
						"TEXCOORD_0":2
					},
					"indices":3,
					"material":0
				}
			]
		}
	],
	"textures":[
		{
			"sampler":0,
			"source":0
		}
	],
	"images":[
		{
			"mimeType":"image/png",
			"name":"P_magmared2",
			"uri":"P_magmared2.png"
		}
	],
	"accessors":[
		{
			"bufferView":0,
			"componentType":5126,
			"count":97,
			"max":[
				32,
				30.433748245239258,
				32
			],
			"min":[
				-32,
				-30.433748245239258,
				-32
			],
			"type":"VEC3"
		},
		{
			"bufferView":1,
			"componentType":5126,
			"count":97,
			"type":"VEC3"
		},
		{
			"bufferView":2,
			"componentType":5126,
			"count":97,
			"type":"VEC2"
		},
		{
			"bufferView":3,
			"componentType":5123,
			"count":420,
			"type":"SCALAR"
		}
	],
	"bufferViews":[
		{
			"buffer":0,
			"byteLength":1164,
			"byteOffset":0,
			"target":34962
		},
		{
			"buffer":0,
			"byteLength":1164,
			"byteOffset":1164,
			"target":34962
		},
		{
			"buffer":0,
			"byteLength":776,
			"byteOffset":2328,
			"target":34962
		},
		{
			"buffer":0,
			"byteLength":840,
			"byteOffset":3104,
			"target":34963
		}
	],
	"samplers":[
		{
			"magFilter":9729,
			"minFilter":9987
		}
	],
	"buffers":[
		{
			"byteLength":3944,
			"uri":"explosion.bin"
		}
	]
}
